<svg width="18.000000" height="18.000000" viewBox="0 0 18 18" fill="none" xmlns="http://www.w3.org/2000/svg" xmlns:xlink="http://www.w3.org/1999/xlink">
	<desc>
			Created with Pixso.
	</desc>
	<defs/>
	<path id="Vector" d="M15 0L3 0C2.2 0 1.44 0.31 0.87 0.87C0.31 1.44 0 2.2 0 3L0 15C0 15.79 0.31 16.55 0.87 17.12C1.44 17.68 2.2 18 3 18L15 18C15.79 18 16.55 17.68 17.12 17.12C17.68 16.55 18 15.79 18 15L18 3C18 2.2 17.68 1.44 17.12 0.87C16.55 0.31 15.79 0 15 0ZM16 15C16 15.26 15.89 15.51 15.7 15.7C15.51 15.89 15.26 16 15 16L3 16C2.73 16 2.48 15.89 2.29 15.7C2.1 15.51 2 15.26 2 15L2 3C2 2.73 2.1 2.48 2.29 2.29C2.48 2.1 2.73 2 3 2L15 2C15.26 2 15.51 2.1 15.7 2.29C15.89 2.48 16 2.73 16 3L16 15Z" fill="#FFFFFF" fill-opacity="1.000000" fill-rule="nonzero"/>
</svg>
